<svg height="512pt" viewBox="0 -51 512 512" width="512pt" xmlns="http://www.w3.org/2000/svg"><path d="m256 120c-8.285156 0-15-6.714844-15-15v-90c0-8.285156 6.714844-15 15-15s15 6.714844 15 15v90c0 8.285156-6.714844 15-15 15zm0 0" fill="#9bb9c3"/><path d="m271 105v-90c0-8.285156-6.714844-15-15-15v120c8.285156 0 15-6.714844 15-15zm0 0" fill="#87a0af"/><path d="m377 85c-8.285156 0-15-6.714844-15-15v-25c0-8.285156 6.714844-15 15-15s15 6.714844 15 15v25c0 8.285156-6.714844 15-15 15zm0 0" fill="#485959"/><path d="m135 85c-8.285156 0-15-6.714844-15-15v-25c0-8.285156 6.714844-15 15-15s15 6.714844 15 15v25c0 8.285156-6.714844 15-15 15zm0 0" fill="#55696e"/><path d="m511.9375 333.640625-15.5-170.261719c-2.84375-29.558594-16.53125-56.902344-38.53125-77-22.152344-20.234375-50.882812-31.378906-80.90625-31.378906-31.785156 0-62.273438 12.675781-84.695312 35h-72.609376c-22.421874-22.324219-52.910156-35-84.695312-35-30.019531 0-58.753906 11.144531-80.90625 31.378906-22 20.097656-35.6875 47.441406-38.539062 77.074219l-15.492188 170.1875c-.0429688.453125-.0625.90625-.0625 1.359375 0 41.355469 33.644531 75 75 75 23.785156 0 46.398438-11.46875 60.492188-30.675781.023437-.03125.042968-.0625.066406-.09375l67.480468-93.464844c2.039063-2.824219 10.558594-13.71875 19.253907-25.765625h66.472656c9.679687 12.53125 18.351563 23.214844 20.191406 25.765625l67.480469 93.464844c.023438.03125.046875.066406.070312.09375 14.09375 19.207031 36.707032 30.675781 60.492188 30.675781 41.355469 0 75-33.644531 75-75 0-.453125-.019531-.90625-.0625-1.359375zm0 0" fill="#3f4a4a"/><path d="m496.4375 163.378906c-2.84375-29.558594-16.53125-56.902344-38.53125-77-22.152344-20.234375-50.882812-31.378906-80.90625-31.378906-31.785156 0-62.273438 12.675781-84.695312 35h-36.304688v170h32.765625c9.683594 12.53125 18.351563 23.214844 20.195313 25.765625l67.480468 93.464844c.019532.03125.042969.066406.066406.09375 14.09375 19.207031 36.707032 30.675781 60.492188 30.675781 41.355469 0 75-33.644531 75-75 0-.453125-.019531-.90625-.0625-1.359375zm0 0" fill="#323c3c"/><path d="m165 190h-60c-8.285156 0-15-6.714844-15-15s6.714844-15 15-15h60c8.285156 0 15 6.714844 15 15s-6.714844 15-15 15zm0 0" fill="#9bb9c3"/><path d="m135 220c-8.285156 0-15-6.714844-15-15v-60c0-8.285156 6.714844-15 15-15s15 6.714844 15 15v60c0 8.285156-6.714844 15-15 15zm0 0" fill="#9bb9c3"/><path d="m392 140c0 8.285156-6.714844 15-15 15s-15-6.714844-15-15 6.714844-15 15-15 15 6.714844 15 15zm0 0" fill="#eebf00"/><path d="m392 210c0 8.285156-6.714844 15-15 15s-15-6.714844-15-15 6.714844-15 15-15 15 6.714844 15 15zm0 0" fill="#046eff"/><path d="m357 175c0 8.285156-6.714844 15-15 15s-15-6.714844-15-15 6.714844-15 15-15 15 6.714844 15 15zm0 0" fill="#9bb9c3"/><path d="m427 175c0 8.285156-6.714844 15-15 15s-15-6.714844-15-15 6.714844-15 15-15 15 6.714844 15 15zm0 0" fill="#ff4c04"/><path d="m271 190h-30c-8.285156 0-15-6.714844-15-15s6.714844-15 15-15h30c8.285156 0 15 6.714844 15 15s-6.714844 15-15 15zm0 0" fill="#9bb9c3"/><path d="m271 160h-15v30h15c8.285156 0 15-6.714844 15-15s-6.714844-15-15-15zm0 0" fill="#87a0af"/><path d="m308 295c-24.8125 0-45-20.1875-45-45s20.1875-45 45-45 45 20.1875 45 45-20.1875 45-45 45zm0 0" fill="#485959"/><path d="m204 295c-24.8125 0-45-20.1875-45-45s20.1875-45 45-45 45 20.1875 45 45-20.1875 45-45 45zm0 0" fill="#55696e"/></svg>