<svg id="Capa_1" enable-background="new 0 0 512 512" height="512" viewBox="0 0 512 512" width="512" xmlns="http://www.w3.org/2000/svg"><path d="m256 512c-1.523 0-3.047-.232-4.517-.696-58.558-18.492-108.696-54.446-144.996-103.976s-55.487-108.168-55.487-169.576v-162.752c0-4.395 1.927-8.568 5.272-11.418 3.346-2.85 7.774-4.087 12.111-3.392 24.063 3.873 61.392 5.399 102.569-9.315 27.62-9.871 53.41-25.991 74.58-46.618 5.824-5.675 15.11-5.676 20.936 0 21.17 20.627 46.96 36.748 74.58 46.618 41.179 14.715 78.505 13.188 102.569 9.315 4.336-.697 8.766.542 12.11 3.392 3.346 2.85 5.273 7.023 5.273 11.418v162.752c0 61.408-19.187 120.046-55.486 169.576-36.3 49.53-86.439 85.484-144.996 103.976-1.47.464-2.994.696-4.518.696z" fill="#e1f8ff"/><path d="m455.728 63.582c-3.345-2.85-7.774-4.088-12.11-3.392-24.064 3.873-61.391 5.4-102.569-9.315-27.62-9.871-53.41-25.991-74.58-46.618-2.914-2.838-6.691-4.257-10.469-4.257v512c1.524 0 3.047-.232 4.517-.696 58.557-18.492 108.696-54.446 144.996-103.976s55.487-108.168 55.487-169.576v-162.752c0-4.395-1.927-8.568-5.272-11.418z" fill="#c3e6f2"/><path d="m256 448.182c-1.963 0-3.927-.385-5.775-1.156-37.932-15.823-70.901-41.815-95.344-75.165-28.707-39.172-43.881-85.545-43.881-134.109v-100.965c0-7.786 5.957-14.277 13.713-14.945 22.685-1.953 45.035-6.82 66.43-14.466 19.737-7.053 38.784-16.577 56.612-28.307 5.003-3.292 11.486-3.292 16.489 0 17.828 11.729 36.875 21.253 56.612 28.307 21.394 7.646 43.744 12.513 66.431 14.467 7.757.668 13.713 7.16 13.713 14.945v100.965c0 48.564-15.174 94.938-43.882 134.108-24.442 33.351-57.411 59.342-95.343 75.165-1.847.77-3.811 1.156-5.775 1.156z" fill="#5ae1ea"/><path d="m387.287 121.842c-22.687-1.954-45.037-6.821-66.431-14.467-19.737-7.053-38.784-16.577-56.612-28.307-2.501-1.646-5.373-2.469-8.244-2.469v371.582c1.963 0 3.927-.385 5.775-1.156 37.932-15.823 70.9-41.814 95.343-75.165 28.708-39.171 43.882-85.544 43.882-134.108v-100.965c0-7.785-5.956-14.276-13.713-14.945z" fill="#19c8d2"/><path d="m299.262 330c-2.491 0-4.99-.62-7.256-1.872l-36.006-19.904-36.005 19.904c-5.027 2.78-11.201 2.443-15.896-.866-4.696-3.308-7.09-9.008-6.165-14.677l7.043-43.181-29.713-30.454c-3.926-4.024-5.272-9.906-3.488-15.237 1.785-5.332 6.401-9.217 11.958-10.066l40.457-6.181 18.23-38.839c2.472-5.265 7.763-8.627 13.579-8.627 5.815 0 11.107 3.362 13.579 8.626l18.229 38.839 40.457 6.181c5.558.849 10.174 4.735 11.958 10.066 1.785 5.331.438 11.213-3.487 15.237l-29.713 30.454 7.044 43.181c.925 5.669-1.47 11.369-6.166 14.677-2.579 1.819-5.604 2.739-8.639 2.739z" fill="#fff05f"/><path d="m292.006 328.128c2.266 1.252 4.765 1.872 7.256 1.872 3.035 0 6.061-.92 8.64-2.738 4.696-3.308 7.091-9.008 6.166-14.677l-7.044-43.181 29.713-30.454c3.926-4.024 5.272-9.906 3.487-15.237-1.784-5.332-6.4-9.217-11.958-10.066l-40.457-6.181-18.229-38.839c-2.473-5.265-7.765-8.627-13.58-8.627v148.224z" fill="#ffd737"/></svg>