<?xml version="1.0" encoding="iso-8859-1"?>
<!-- Generator: Adobe Illustrator 21.0.0, SVG Export Plug-In . SVG Version: 6.00 Build 0)  -->
<svg xmlns="http://www.w3.org/2000/svg" xmlns:xlink="http://www.w3.org/1999/xlink" version="1.1" id="Capa_1" x="0px" y="0px" viewBox="0 0 512 512" style="enable-background:new 0 0 512 512;" xml:space="preserve" width="512" height="512">
<g>
	<path style="fill:#7C8388;" d="M151,30c0-16.538-13.462-30-30-30S91,13.462,91,30v30l30,30l30-30V30z"/>
	<path style="fill:#575F64;" d="M391,0c-16.538,0-30,13.462-30,30v30l30,30l30-30V30C421,13.462,407.538,0,391,0z"/>
	<g>
		<path style="fill:#BBDCFF;" d="M127.226,162.466l-36.006,241c-0.747,4.351,0.469,8.818,3.311,12.202    C97.387,419.052,101.576,421,106,421h120l-12.202-271L127.226,162.466z"/>
		<path style="fill:#BBDCFF;" d="M384.774,162.466L298.202,150L286,421h120c4.424,0,8.613-1.948,11.47-5.332    c2.842-3.384,4.058-7.852,3.311-12.202L384.774,162.466z"/>
	</g>
	<path style="fill:#575F64;" d="M316,482v-30l-30-31l-30,31l-30,17.812L256,482c0,16.567,13.431,30,30,30S316,498.567,316,482z"/>
	<path style="fill:#7C8388;" d="M256,482v-30l-25.313-31L196,452v30c0,16.567,13.431,30,30,30S256,498.567,256,482z"/>
	<path style="fill:#FFCEBF;" d="M256,0c-32.999,0-60,26.999-60,60c0,32.999,27.001,60,60,60s60-27.001,60-60   C316,26.999,288.999,0,256,0z"/>
	<path style="fill:#FFB99C;" d="M256,120V0c32.999,0,60,26.999,60,60C316,92.999,288.999,120,256,120z"/>
	<polygon style="fill:#FDBF00;" points="316,331 316,452 196,452 196,331 256,301  "/>
	<polygon style="fill:#FF9100;" points="256,301 316,331 316,452 256,452  "/>
	<polygon style="fill:#7C8388;" points="316,271 316,331 196,331 196,271 256,241  "/>
	<polygon style="fill:#575F64;" points="256,241 316,271 316,331 256,331  "/>
	<path style="fill:#FDBF00;" d="M421,60v90c0,16.5-13.5,30-30,30h-75v91H196v-91h-75c-16.5,0-30-13.5-30-30V60h60v60h38.699   l55.801,25.499h20.999L322.301,120H361V60H421z"/>
	<path style="fill:#FF9100;" d="M421,60v90c0,16.5-13.5,30-30,30h-75v91h-60V145.499h10.499L322.301,120H361V60H421z"/>
	<path style="fill:#7C8388;" d="M322.301,120l-55.801,55.499C263.8,178.5,259.9,180,256,180s-7.8-1.5-10.499-4.501L189.699,120   H322.301z"/>
	<path style="fill:#575F64;" d="M266.499,175.499C263.8,178.5,259.9,180,256,180v-60h66.301L266.499,175.499z"/>
</g>















</svg>
